<svg id="Layer_1" data-name="Layer 1" xmlns="http://www.w3.org/2000/svg" viewBox="0 0 682.87 268.01"><defs><style>.cls-1{fill:#c6c6c6;}.cls-2{fill:#1d1d1b;}</style></defs><title>Artboard 70 copy 2</title><path id="_Path_" data-name="&lt;Path&gt;" class="cls-1" d="M379.87,207.07c-3.5,0-5.64-2-5.64-7,0,0-.08-3.16-.08-14.7V172.81h12.13v-3.16H374.15V155.1h-1.71l-6.07,14.55h-7.09v2.65l6.58.51v28.54c0,7.09,4.61,10.08,10.16,10.08,3.34,0,7.78-1,12.13-6.15l-1.11-1.2a12.49,12.49,0,0,1-7.17,3"/><path id="_Compound_Path_" data-name="&lt;Compound Path&gt;" class="cls-1" d="M336.72,170.08c4.36,0,9,2.82,9.32,12.56H325.19c.85-7.6,5.81-12.56,11.53-12.56m2.06,36.39c-8.64,0-13.85-7.94-13.85-18.45V185.2h29.74c-1-11.45-8.29-18-17.78-18-11.18,0-20.75,9-20.75,22.12,0,12.56,7.51,22.13,20.84,22.13,7.52,0,14.36-3.76,17.86-12.39l-2.22-.94c-4.1,7.26-9.91,8.37-13.84,8.37"/><path id="_Compound_Path_2" data-name="&lt;Compound Path&gt;" class="cls-1" d="M411.7,170.08c4.35,0,9,2.82,9.31,12.56H400.16c.86-7.6,5.81-12.56,11.54-12.56m2.05,36.39c-8.63,0-13.85-7.94-13.85-18.45V185.2h29.74c-1-11.45-8.29-18-17.77-18-11.19,0-20.76,9-20.76,22.12,0,12.56,7.51,22.13,20.84,22.13,7.52,0,14.35-3.76,17.86-12.39l-2.22-.94c-4.1,7.26-9.91,8.37-13.84,8.37"/><path id="_Compound_Path_3" data-name="&lt;Compound Path&gt;" class="cls-1" d="M536.57,201.94c-2,3.68-6.15,5.05-9,5.05-3.5,0-6.4-2.23-6.4-6.84,0-5,3.58-9.57,15.37-10.34Zm11.62,4.36c-3.07,0-3.84-3.07-3.76-7.34l.26-20.76c.09-8-6.49-10.85-13.84-10.85-8,0-15.12,4-15.12,9.73a3.8,3.8,0,0,0,3.76,4c3.24,0,4.18-2.56,3.84-5.38C522.9,172,525.47,170,530,170c5.13,0,6.5,3.34,6.5,8v9.9h-.6c-13.76,0-23.15,3.68-23.15,13.08,0,5.89,4.53,10.5,11.44,10.5,4.28,0,9-1.54,12.56-7.17.77,4.87,3.93,6.83,7.69,6.83,3.08,0,6.49-1.37,9.23-6l-1.2-1a6,6,0,0,1-4.27,2.13"/><path id="_Path_2" data-name="&lt;Path&gt;" class="cls-1" d="M492.23,206.47c-9,0-14.09-8-14.09-18.54,0-11.7,7.17-17.94,12.72-17.94,8.12,0,5.13,8.46,11.54,8.46a3.73,3.73,0,0,0,3.59-3.84c0-4.7-8.72-7.35-14.53-7.35-12.81,0-22.12,9-22.12,22.21,0,12,7.26,22,20.84,22,5.47,0,12.9-2,16.92-11.36l-2.22-1c-3.85,6.75-9.32,7.43-12.65,7.43"/><path id="_Path_3" data-name="&lt;Path&gt;" class="cls-1" d="M611,167.26c-6.49,0-11.71,3.67-14.95,10.08-1.54-6.83-5.9-10.08-12.65-10.08-6.23,0-11.36,3.59-14.35,9.4v-8.2l-8.27.44,0,41.33h8.31V179.39c2.56-4.53,7.09-7,10.42-7,7.18,0,8.89,5.12,8.89,12.81v25h8.28V183.66a27.33,27.33,0,0,0-.25-3.84c2.65-4.79,7.17-7.43,10.68-7.43,7.17,0,8.88,5.12,8.88,12.81v25h8.29V183.66c0-11.27-4.7-16.4-13.33-16.4"/><path id="_Path_4" data-name="&lt;Path&gt;" class="cls-1" d="M461.17,167.26c-6.41,0-11.19,6-13,13.16V168.54l-7.95.45v41.24h8.29V182.55c1.88-5.64,5.89-9.82,7.94-9.82,1.29,0,3,3.84,6.58,3.84a4.13,4.13,0,0,0,4.19-4.18c0-3.08-2.57-5.13-6.07-5.13"/><path id="_Compound_Path_4" data-name="&lt;Compound Path&gt;" class="cls-1" d="M288.11,179.13a28.41,28.41,0,0,1-6.83-.94V147.87a48.07,48.07,0,0,1,7.26-.52c8.72,0,17.26,3.25,17.26,15.89,0,11.28-7.86,15.89-17.69,15.89m.09-35c-3.67,0-7.38.1-16.06.1v66h9.14V180.5a36.06,36.06,0,0,0,10.85,1.71c13.24,0,23-6.75,23-19.22,0-16.23-13.84-18.88-26.91-18.88"/><path id="_Compound_Path_5" data-name="&lt;Compound Path&gt;" class="cls-1" d="M391.62,129.65a21.17,21.17,0,0,0,4.53.26l9.74-.17c6.41-.09,11.62,2,11.62,7.35,0,7.77-9.4,9.82-17,9.82-6.67,0-13.42-2.56-13.42-9.48a9.6,9.6,0,0,1,4.53-7.78m-.43-33.23c.09-8.11,3-12.64,9-12.64,6.16,0,8.63,5.64,8.55,13.75-.09,5.64-2.14,12.65-9,12.65-6.16,0-8.63-5.9-8.55-13.76m-11,41.52c0,8.72,10.68,12.31,20.34,12.31,13.75,0,23.32-6.24,23.32-16.32,0-8.55-6.24-12.48-17.77-12.31l-11,.17c-4.7.09-5.9-1.36-5.9-3.5,0-2.39,3.25-5.38,10.34-5.64,10.17.09,17.69-6,17.69-15.37a15.77,15.77,0,0,0-5.9-11.88l10.54-.14V82.42l-13.27,1.1a17.56,17.56,0,0,0-8.46-2.22c-9.14,0-17.26,5.13-17.35,15.12a16.25,16.25,0,0,0,11.11,15.3c-9.31,1.36-11.36,6.57-11.36,9.65a8.54,8.54,0,0,0,7.09,8c-6.06,1.2-9.4,5.21-9.4,8.54"/><path id="_Compound_Path_6" data-name="&lt;Compound Path&gt;" class="cls-1" d="M357.91,84.12c4.36,0,9,2.82,9.32,12.56H346.38c.85-7.6,5.81-12.56,11.53-12.56m.26,41.35c7.52,0,14.35-3.76,17.85-12.39l-2.22-.94c-4.1,7.26-9.91,8.37-13.84,8.37-8.62,0-13.84-7.94-13.84-18.45V99.24h29.73c-1-11.45-8.28-18-17.76-18-11.2,0-20.77,9-20.77,22.12,0,12.56,7.52,22.13,20.85,22.13"/><path id="_Compound_Path_7" data-name="&lt;Compound Path&gt;" class="cls-1" d="M481.65,122.06c-7.52,0-12.3-8.55-12.3-18.72,0-11.53,5-18.62,12.81-18.62s12.65,8,12.65,18.88c0,11.62-5.39,18.46-13.16,18.46M482,81.3c-11.45,0-22,8.8-22,21.36,0,11.87,8,22.81,21.78,22.81,13.08,0,22.39-9.48,22.39-21.45,0-12.38-8.72-22.72-22.13-22.72"/><path id="_Compound_Path_8" data-name="&lt;Compound Path&gt;" class="cls-1" d="M531.21,122.06c-7.52,0-12.3-8.55-12.3-18.72,0-11.53,5-18.62,12.81-18.62s12.65,8,12.65,18.88c0,11.62-5.39,18.46-13.16,18.46m.34-40.76c-11.45,0-22,8.8-22,21.36,0,11.87,8,22.81,21.79,22.81,13.07,0,22.38-9.48,22.38-21.45,0-12.38-8.72-22.72-22.13-22.72"/><path id="_Path_5" data-name="&lt;Path&gt;" class="cls-1" d="M581.43,55.93c-6.33,0-13.85,2.82-17.26,12-1.11,3.08-1.8,6.92-1.8,14v42.29h8.29V86.85h13.5V83.69h-13.5V79.85c0-6.75.43-10.25,1.2-12.9,1.88-6.75,5.46-8.63,7.77-8.63,2.9,0,4.27,2.14,5.21,4.27s2.31,4,5.13,4a3.83,3.83,0,0,0,3.76-4.1c-.26-4.36-6.32-6.58-12.3-6.58"/><path id="_Path_6" data-name="&lt;Path&gt;" class="cls-1" d="M451.87,81.3c-6.41,0-11.19,6-13,13.16V82.58l-7.94.45v41.24h8.29V96.59c1.88-5.64,5.89-9.82,7.94-9.82,1.28,0,3,3.84,6.58,3.84a4.14,4.14,0,0,0,4.19-4.18c0-3.08-2.57-5.13-6.07-5.13"/><path id="_Compound_Path_9" data-name="&lt;Compound Path&gt;" class="cls-1" d="M294,121.11c-10.77,0-12.65-.6-12.65-5.64,0-1.87-.08-6.32-.08-14.43V61.91a68.54,68.54,0,0,1,7.69-.43c14.78,0,31.35,4.44,31.35,29.05,0,24.35-14.1,30.58-26.31,30.58m23.83-56.3c-8.37-5.89-20.93-6.75-32.63-6.75-4.26,0-8.7.09-13.07.15v66.06h22.55c21.36,0,35.8-12.64,35.8-33.57,0-11.79-4.79-20.42-12.65-25.89"/><path id="_Compound_Path_10" data-name="&lt;Compound Path&gt;" class="cls-2" d="M135.47,128.15v0l56.45-67.26a19.53,19.53,0,0,0-27.5,2.4L144,87.64a43.91,43.91,0,1,0-8.52,40.51M83.14,84.24a24.4,24.4,0,0,1,37.39,31.35v0A24.4,24.4,0,0,1,83.14,84.24"/><path id="_Compound_Path_11" data-name="&lt;Compound Path&gt;" class="cls-2" d="M212.3,135.28a43.93,43.93,0,0,0-61.88,5.42v0L94,208a19.5,19.5,0,0,0,27.49-2.41l20.45-24.36a43.92,43.92,0,1,0,70.39-45.93m-9.54,49.33a24.4,24.4,0,1,1-3-34.38,24.41,24.41,0,0,1,3,34.38"/></svg>