<svg id="Layer_1" data-name="Layer 1" xmlns="http://www.w3.org/2000/svg" viewBox="0 0 224.39 206.93"><defs><style>.cls-1{fill:#1d1d1b;}</style></defs><title>01_DegroofPetercam_Symbol_Big</title><path id="_Compound_Path_" data-name="&lt;Compound Path&gt;" class="cls-1" d="M114.39,108.91v0l74.48-88.75a25.75,25.75,0,0,0-36.28,3.17l-27,32.15a57.93,57.93,0,1,0-11.23,53.45M45.34,51A32.19,32.19,0,0,1,94.67,92.34v0A32.19,32.19,0,0,1,45.34,51" transform="translate(-12.05 -13.72)"/><path id="_Compound_Path_2" data-name="&lt;Compound Path&gt;" class="cls-1" d="M215.75,118.32a58,58,0,0,0-81.64,7.14s0,0,0,0L59.62,214.24a25.75,25.75,0,0,0,36.28-3.18l27-32.14a57.94,57.94,0,1,0,92.87-60.6M203.16,183.4a32.19,32.19,0,1,1-4-45.35,32.19,32.19,0,0,1,4,45.35" transform="translate(-12.05 -13.72)"/></svg>